<svg version="1.2" xmlns="http://www.w3.org/2000/svg" viewBox="0 0 20 22" width="20" height="22">
	<title>projects-svg</title>
	<style>
		.s0 { fill: #15629e } 
	</style>
	<g id="Layer">
		<path id="Layer" fill-rule="evenodd" class="s0" d="m16.3 11.8l0.4 0.9q0.2 0.1 0.4 0.2l0.9-0.1q0.1 0 0.2 0 0.1 0 0.2 0 0.1 0.1 0.2 0.1 0 0.1 0.1 0.1 0.2 0.2 0.3 0.4 0.2 0.3 0.3 0.5 0.1 0.2 0.2 0.4 0.1 0.3 0.2 0.5c0.1 0.2 0.1 0.5-0.1 0.7l-0.6 0.8q0 0.2 0 0.4l0.6 0.8q0.1 0.1 0.1 0.2 0 0 0 0.1 0.1 0.1 0.1 0.2-0.1 0.1-0.1 0.2-0.1 0.2-0.2 0.5-0.1 0.2-0.2 0.4-0.1 0.2-0.3 0.5-0.1 0.2-0.3 0.4-0.1 0-0.1 0.1-0.1 0-0.2 0.1-0.1 0-0.2 0-0.1 0-0.2 0l-0.9-0.1q-0.1 0-0.1 0-0.1 0.1-0.1 0.1-0.1 0-0.1 0.1-0.1 0-0.1 0l-0.4 0.9q0 0.1-0.1 0.2 0 0-0.1 0.1-0.1 0.1-0.2 0.1 0 0-0.1 0.1-0.3 0-0.5 0-0.3 0.1-0.5 0.1-0.3 0-0.6-0.1-0.2 0-0.5 0-0.1-0.1-0.1-0.1-0.1 0-0.2-0.1-0.1-0.1-0.1-0.1-0.1-0.1-0.1-0.2l-0.4-0.9q0 0-0.1 0 0-0.1-0.1-0.1 0 0-0.1-0.1 0 0-0.1 0l-0.9 0.1q-0.1 0-0.2 0-0.1 0-0.2 0-0.1-0.1-0.2-0.1 0-0.1-0.1-0.1-0.2-0.2-0.3-0.4-0.2-0.3-0.3-0.5-0.1-0.2-0.2-0.4-0.1-0.3-0.2-0.5 0-0.1-0.1-0.2 0-0.1 0.1-0.2 0-0.1 0-0.1 0-0.1 0.1-0.2l0.6-0.8q0 0 0-0.1 0 0 0-0.1 0-0.1 0-0.1 0-0.1 0-0.1l-0.6-0.8q-0.1-0.1-0.1-0.2 0 0 0-0.1-0.1-0.1-0.1-0.2 0.1-0.1 0.1-0.2 0.1-0.2 0.2-0.5 0.1-0.2 0.2-0.4 0.1-0.2 0.3-0.5 0.1-0.2 0.3-0.4 0.1 0 0.1-0.1 0.1 0 0.2-0.1 0.1 0 0.2 0 0.1 0 0.2 0l0.9 0.1q0.2-0.1 0.4-0.2l0.4-0.9q0-0.1 0.1-0.2 0 0 0.1-0.1 0.1-0.1 0.2-0.1 0 0 0.1-0.1 0.3 0 0.5 0 0.3-0.1 0.6-0.1 0.2 0 0.5 0.1 0.2 0 0.5 0 0.1 0.1 0.1 0.1 0.1 0 0.2 0.1 0.1 0.1 0.1 0.1 0.1 0.1 0.1 0.2zm-1.6 3.4c-0.3 0-0.6 0.2-0.8 0.4-0.3 0.3-0.4 0.6-0.4 0.9 0 0.3 0.1 0.6 0.4 0.9 0.2 0.2 0.5 0.3 0.8 0.3 0.4 0 0.7-0.1 0.9-0.3 0.3-0.3 0.4-0.6 0.4-0.9 0-0.3-0.1-0.6-0.4-0.9-0.2-0.2-0.5-0.4-0.9-0.4z"/>
		<path id="Layer" fill-rule="evenodd" class="s0" d="m12.3 21.8l-9.3-0.1q-0.6 0-1.1-0.2-0.5-0.2-0.9-0.6-0.3-0.3-0.5-0.8-0.3-0.6-0.3-1.1v-16q0-0.5 0.3-1.1 0.2-0.5 0.5-0.8 0.4-0.4 0.9-0.6 0.5-0.2 1.1-0.3h8.6c0.4 0 0.9 0.2 1.2 0.6l4.4 4.4c0.4 0.3 0.5 0.7 0.5 1.2v5.4l-0.3 0.1-0.2-0.5q-0.1-0.2-0.2-0.4-0.1-0.1-0.3-0.3-0.1-0.1-0.3-0.2-0.2-0.1-0.4-0.1-0.3-0.1-0.6-0.1-0.3 0-0.6-0.1-0.4 0.1-0.7 0.1-0.3 0-0.6 0.1-0.2 0-0.4 0.1-0.2 0.1-0.3 0.2-0.2 0.2-0.3 0.3-0.1 0.2-0.2 0.4l-0.2 0.5-0.5-0.1q-0.2 0-0.4 0-0.3 0-0.5 0.1-0.2 0.1-0.3 0.2-0.2 0.1-0.4 0.3-0.2 0.2-0.3 0.5-0.2 0.2-0.4 0.5-0.1 0.2-0.2 0.5-0.2 0.3-0.3 0.6c-0.2 0.5-0.1 1.1 0.3 1.6l0.3 0.4-0.3 0.4q-0.1 0.2-0.2 0.4-0.1 0.2-0.1 0.4-0.1 0.2-0.1 0.4 0.1 0.2 0.1 0.4 0.1 0.3 0.3 0.6 0.1 0.3 0.2 0.5 0.2 0.3 0.4 0.5 0.1 0.3 0.3 0.5c0.4 0.4 1 0.7 1.6 0.6l0.5-0.1 0.2 0.5q0 0.1 0 0.1zm-0.8-20.1v3.9q0 0.2 0.1 0.4 0 0.2 0.2 0.3 0.1 0.1 0.3 0.2 0.2 0.1 0.4 0.1h3.9q0 0 0-0.1-0.1 0-0.1-0.1 0 0 0 0-0.1-0.1-0.1-0.1l-4.4-4.4q0 0-0.1-0.1 0 0-0.1 0 0 0 0-0.1-0.1 0-0.1 0zm-7.5 5.1h4.5q0.3 0 0.5-0.2 0.2-0.2 0.2-0.5 0-0.3-0.2-0.5-0.2-0.3-0.5-0.3h-4.5q-0.3 0-0.5 0.3-0.3 0.2-0.3 0.5 0 0.3 0.3 0.5 0.2 0.2 0.5 0.2zm0 10.6h3.5q0.3-0.1 0.5-0.3 0.2-0.2 0.2-0.5 0-0.3-0.2-0.5-0.2-0.2-0.5-0.2h-3.5q-0.3 0-0.5 0.2-0.3 0.2-0.3 0.5 0 0.3 0.3 0.5 0.2 0.2 0.5 0.3zm0-3.5h3.5q0.3-0.1 0.5-0.3 0.2-0.2 0.2-0.5 0-0.3-0.2-0.5-0.2-0.2-0.5-0.2h-3.5q-0.3 0-0.5 0.2-0.3 0.2-0.3 0.5 0 0.3 0.3 0.5 0.2 0.2 0.5 0.3zm0-3.5h7q0.3-0.1 0.5-0.3 0.2-0.2 0.2-0.5 0-0.3-0.2-0.5-0.2-0.2-0.5-0.2h-7q-0.3 0-0.5 0.2-0.3 0.2-0.3 0.5 0 0.3 0.3 0.5 0.2 0.2 0.5 0.3z"/>
	</g>
</svg>