<svg xmlns="http://www.w3.org/2000/svg" version="1.1" xmlns:xlink="http://www.w3.org/1999/xlink" xmlns:svgjs="http://svgjs.com/svgjs" width="512" height="512" x="0" y="0" viewBox="0 0 682.667 682.667" style="enable-background:new 0 0 512 512" xml:space="preserve" class="">
  <g>
    <defs stroke-width="45" style="stroke-width: 45;">
      <clipPath id="a" clipPathUnits="userSpaceOnUse" stroke-width="45" style="stroke-width: 45;">
        <path d="M0 512h512V0H0Z" fill="#ffffff" data-original="#000000" opacity="1" stroke-width="45" style="stroke-width: 45;"></path>
      </clipPath>
    </defs>
    <g clip-path="url(#a)" transform="matrix(1.33333 0 0 -1.33333 0 682.667)" stroke-width="45" style="stroke-width: 45;">
      <path d="M0 0c-60 90-165 212-165 317 0 90.981 74.019 165 165 165s165-74.019 165-165C165 212 60 90 0 0Z" style="stroke-width: 45; stroke-linecap: round; stroke-linejoin: round; stroke-miterlimit: 10; stroke-dasharray: none; stroke-opacity: 1;" transform="translate(256 15)" fill="none" stroke="#ffffff" stroke-width="45" stroke-linecap="round" stroke-linejoin="round" stroke-miterlimit="10" stroke-dasharray="none" stroke-opacity="" data-original="#000000" opacity="1" class=""></path>
      <path d="M0 0c-41.453 0-75 33.647-75 75s33.647 75 75 75 75-33.647 75-75S41.453 0 0 0Z" style="stroke-width: 45; stroke-linecap: round; stroke-linejoin: round; stroke-miterlimit: 10; stroke-dasharray: none; stroke-opacity: 1;" transform="translate(256 257)" fill="none" stroke="#ffffff" stroke-width="45" stroke-linecap="round" stroke-linejoin="round" stroke-miterlimit="10" stroke-dasharray="none" stroke-opacity="" data-original="#000000" opacity="1" class=""></path>
    </g>
  </g>
</svg>