<svg xmlns="http://www.w3.org/2000/svg" version="1.1" xmlns:xlink="http://www.w3.org/1999/xlink" xmlns:svgjs="http://svgjs.com/svgjs" width="512" height="512" x="0" y="0" viewBox="0 0 512 512" style="enable-background:new 0 0 512 512" xml:space="preserve" class="">
  <g>
    <path d="M326 411.813h-16.596c-4.166-8.887-6.24-22.01-6.977-35.541-14.561 3.808-30.1 5.738-46.558 5.738-16.252 0-31.612-1.884-46.029-5.593-.679 13.472-2.72 26.542-6.917 35.396H186c-19.299 0-35 15.701-35 35v5.186h210v-5.186c0-19.299-15.701-35-35-35zM381 481.999H131c-8.284 0-15 6.716-15 15s6.716 15 15 15h250c8.284 0 15-6.716 15-15s-6.716-15-15-15zM66 30.001h380c8.284 0 15-6.716 15-15s-6.716-15-15-15H66c-8.284 0-15 6.716-15 15s6.716 15 15 15zM420.746 86.741c.658-8.616 1.374-17.988 2.201-26.74H87.823c.706 7.858 1.329 16.146 1.905 23.808 3.586 47.718 8.496 113.068 29.729 166.955 26.47 67.182 72.366 101.246 136.413 101.246 63.491 0 108.982-33.521 135.21-99.631 21.074-53.122 26.04-118.153 29.666-165.638zm-93.452 88.953-20.519 26.75.925 33.746a15 15 0 0 1-20.033 14.539L256 239.434l-31.667 11.295a15.002 15.002 0 0 1-20.034-14.539l.925-33.746-20.518-26.75a15 15 0 0 1 7.649-23.514l32.249-9.535 19.011-27.827a15.003 15.003 0 0 1 24.772 0l19.011 27.827 32.249 9.535a15.004 15.004 0 0 1 10.011 9.745 15.004 15.004 0 0 1-2.364 13.769z" fill="#e9f5fe" data-original="#000000" class=""></path>
    <path d="M265.638 163.977 256 149.87l-9.638 14.107a15 15 0 0 1-8.132 5.923l-16.433 4.858 10.47 13.649a14.993 14.993 0 0 1 3.092 9.54l-.471 17.165 16.072-5.732a15 15 0 0 1 10.078 0l16.072 5.732-.471-17.165c-.095-3.44.997-6.81 3.092-9.54l10.47-13.649-16.431-4.858a14.995 14.995 0 0 1-8.132-5.923zM74.781 205.214C48.925 172.622 33.215 132.553 30.442 90.44h29.7a8644.03 8644.03 0 0 1-.329-4.377c-.519-6.896-1.25-16.613-2.082-25.623H15c-8.284 0-15 6.716-15 15v1.545c0 73.456 34.529 143.099 92.638 187.496-.367-.904-.734-1.807-1.094-2.721-7.16-18.171-12.58-37.308-16.763-56.546zM497 60.44h-43.945c-.986 10.13-1.844 21.355-2.395 28.568l-.109 1.432h30.999c-2.846 42.849-19.086 83.56-45.773 116.436-4.189 19.283-9.62 38.439-16.812 56.566-.232.584-.469 1.159-.704 1.739C477.034 220.823 512 150.79 512 76.86v-1.42c0-8.284-6.716-15-15-15z" fill="#e9f5fe" data-original="#000000" class=""></path>
  </g>
</svg>