<svg version="1.2" xmlns="http://www.w3.org/2000/svg" viewBox="0 0 56 44" width="56" height="44">
	<title>education-svg</title>
	<style>
		.s0 { fill: #15629e } 
	</style>
	<g id="Layer">
		<path id="Layer" class="s0" d="m55 11.6l-26.3-11.1q-0.1 0-0.3-0.1-0.2 0-0.3 0-0.2 0-0.4 0-0.1 0.1-0.3 0.1l-26.4 11.1q-0.5 0.2-0.7 0.6-0.3 0.4-0.3 0.9 0 0.5 0.3 0.9 0.2 0.5 0.7 0.7c1.6 0.6 10.7 4.5 12 5l14.4 6.1q0.2 0.1 0.4 0.1 0.1 0 0.3 0 0.1 0 0.3 0 0.2 0 0.3-0.1l21.1-8.9v13.2c-2 0.5-2.8 3.9-1.7 5.7l-1.5 6.6q0 0.3 0.1 0.6 0.1 0.3 0.4 0.4 0.2 0.2 0.6 0.2 0.3 0 0.5-0.2 0.3-0.2 0.6-0.3 0.3-0.2 0.6-0.3 0.3-0.1 0.6-0.2 0.3 0 0.7 0 0.3 0 0.7 0 0.3 0.1 0.6 0.2 0.4 0.1 0.7 0.2 0.3 0.2 0.6 0.4 0.2 0.2 0.6 0.2 0.3 0 0.5-0.2 0.3-0.1 0.4-0.4 0.1-0.4 0-0.7l-1.8-6.5c1-1.7 0.4-4.6-1.2-5.5v-14.2l3.2-1.4q0.5-0.2 0.7-0.6 0.3-0.4 0.3-0.9 0-0.5-0.3-1-0.2-0.4-0.7-0.6z"/>
		<path id="Layer" class="s0" d="m26.6 27.6l-15.6-6.6v9.7q0 0.4 0.1 0.8 0.1 0.4 0.3 0.7 0.2 0.4 0.4 0.7 0.3 0.3 0.6 0.5 1.7 1.1 3.5 2 1.7 0.8 3.6 1.4 1.9 0.7 3.9 1 1.9 0.3 3.9 0.4 2.2 0 4.3-0.3 2.2-0.2 4.3-0.8 2-0.7 4-1.6 2-0.9 3.8-2.1 0.3-0.2 0.6-0.5 0.3-0.3 0.5-0.6 0.2-0.4 0.3-0.8 0.1-0.4 0.1-0.8v-9.7l-15.7 6.6q-0.3 0.2-0.7 0.3-0.4 0-0.7 0-0.4 0-0.8 0-0.3-0.1-0.7-0.3z"/>
	</g>
</svg>