<svg xmlns="http://www.w3.org/2000/svg" version="1.1" xmlns:xlink="http://www.w3.org/1999/xlink" xmlns:svgjs="http://svgjs.com/svgjs" width="512" height="512" x="0" y="0" viewBox="0 0 512 512" style="enable-background:new 0 0 512 512" xml:space="preserve" class="">
  <g>
    <path d="M467 0H45C20.19 0 0 20.19 0 45v20h512V45c0-24.81-20.19-45-45-45zM201.877 236.711l53.439 46.76 78.077-78.077c6.183-6.183 16.157-5.727 21.817.641L393 248.547V167H119v127.092l62.91-57.191c5.64-5.129 14.23-5.21 19.967-.19z" fill="#e9f5fe" data-original="#000000" class=""></path>
    <path d="m393 293.703-49.643-55.848-76.751 76.751c-5.585 5.584-14.542 5.882-20.484.683l-53.932-47.19L119 334.635V361h274z" fill="#e9f5fe" data-original="#000000" class=""></path>
    <path d="M0 467c0 24.81 20.19 45 45 45h422c24.81 0 45-20.19 45-45V95H0zm146.606-16.394-16 16c-5.858 5.858-15.355 5.858-21.213 0l-16-16c-5.858-5.857-5.858-15.355 0-21.213 5.857-5.857 15.355-5.857 21.213 0l5.394 5.394 5.394-5.394c5.857-5.857 15.355-5.857 21.213 0 5.857 5.858 5.857 15.356-.001 21.213zM232 463h-32c-8.284 0-15-6.716-15-15s6.716-15 15-15h32c8.284 0 15 6.716 15 15s-6.716 15-15 15zm96 0h-32c-8.284 0-15-6.716-15-15s6.716-15 15-15h32c8.284 0 15 6.716 15 15s-6.716 15-15 15zM89 152c0-8.284 6.716-15 15-15h304c8.284 0 15 6.716 15 15v224c0 8.284-6.716 15-15 15H104c-8.284 0-15-6.716-15-15z" fill="#e9f5fe" data-original="#000000" class=""></path>
  </g>
</svg>